HIERARCHY
ROOT Hips
{
	OFFSET 0.000000 0.000000 0.000000
	CHANNELS 6 Xposition Yposition Zposition Xrotation Yrotation Zrotation
	JOINT LeftUpLeg_virtual
	{
		OFFSET 0.000000 0.000000 0.000000
		CHANNELS 3 Xrotation Yrotation Zrotation
		JOINT LeftUpLeg
		{
			OFFSET 15.427100 -6.655098 0.678600
			CHANNELS 3 Xrotation Yrotation Zrotation
			JOINT LeftLeg
			{
				OFFSET 4.081073 -39.591068 13.024000
				CHANNELS 3 Xrotation Yrotation Zrotation
				JOINT LeftFoot
				{
					OFFSET -4.081074 -37.707932 -15.979700
					CHANNELS 3 Xrotation Yrotation Zrotation
					JOINT LeftToeBase
					{
						OFFSET 5.346399 -15.068900 20.645000
						CHANNELS 3 Xrotation Yrotation Zrotation
						JOINT LeftToe_End
						{
							OFFSET 2.754700 0.931300 11.300900
							CHANNELS 3 Xrotation Yrotation Zrotation
							End Site
							{
								OFFSET 0 0 0
							}
						}
					}
				}
			}
		}
	}
	JOINT RightUpLeg_virtual
	{
		OFFSET 0.000000 0.000000 0.000000
		CHANNELS 3 Xrotation Yrotation Zrotation
		JOINT RightUpLeg
		{
			OFFSET -15.569500 -6.655098 0.678600
			CHANNELS 3 Xrotation Yrotation Zrotation
			JOINT RightLeg
			{
				OFFSET -4.081825 -39.591045 13.023800
				CHANNELS 3 Xrotation Yrotation Zrotation
				JOINT RightFoot
				{
					OFFSET 4.081824 -37.707954 -15.979600
					CHANNELS 3 Xrotation Yrotation Zrotation
					JOINT RightToeBase
					{
						OFFSET -5.346400 -15.068900 20.645000
						CHANNELS 3 Xrotation Yrotation Zrotation
						JOINT RightToe_End
						{
							OFFSET -2.754700 0.931300 11.300900
							CHANNELS 3 Xrotation Yrotation Zrotation
							End Site
							{
								OFFSET 0 0 0
							}
						}
					}
				}
			}
		}
	}
	JOINT Spine_virtual
	{
		OFFSET 0.000000 0.000000 0.000000
		CHANNELS 3 Xrotation Yrotation Zrotation
		JOINT Spine
		{
			OFFSET -0.279200 12.230698 -2.892100
			CHANNELS 3 Xrotation Yrotation Zrotation
			JOINT Spine1
			{
				OFFSET -0.232667 10.192268 -1.242267
				CHANNELS 3 Xrotation Yrotation Zrotation
				JOINT Spine1_split
				{
					OFFSET -0.232667 10.192268 -1.242267
					CHANNELS 3 Xrotation Yrotation Zrotation
					JOINT Spine2
					{
						OFFSET -0.232667 10.192268 -1.242267
						CHANNELS 3 Xrotation Yrotation Zrotation
						JOINT Neck_virtual
						{
							OFFSET 0.000000 0.000000 0.000000
							CHANNELS 3 Xrotation Yrotation Zrotation
							JOINT Neck
							{
								OFFSET -0.418800 17.814194 8.416900
								CHANNELS 3 Xrotation Yrotation Zrotation
								JOINT Head
								{
									OFFSET 0.000000 7.031097 3.806800
									CHANNELS 3 Xrotation Yrotation Zrotation
									JOINT HeadTop_End
									{
										OFFSET 0.000000 24.646606 12.978600
										CHANNELS 3 Xrotation Yrotation Zrotation
										End Site
										{
											OFFSET 0 0 0
										}
									}
								}
							}
						}
						JOINT LeftShoulder_virtual
						{
							OFFSET 0.000000 0.000000 0.000000
							CHANNELS 3 Xrotation Yrotation Zrotation
							JOINT LeftShoulder
							{
								OFFSET 8.476499 7.247704 -3.868750
								CHANNELS 3 Xrotation Yrotation Zrotation
								JOINT LeftShoulder_split
								{
									OFFSET 8.476499 7.247704 -3.868750
									CHANNELS 3 Xrotation Yrotation Zrotation
									JOINT LeftArm
									{
										OFFSET 9.308998 -2.777710 0.208600
										CHANNELS 3 Xrotation Yrotation Zrotation
										JOINT LeftForeArm
										{
											OFFSET 29.972298 0.000000 0.000000
											CHANNELS 3 Xrotation Yrotation Zrotation
											JOINT LeftHand
											{
												OFFSET 26.026505 0.000000 0.000000
												CHANNELS 3 Xrotation Yrotation Zrotation
												End Site
												{
													OFFSET 0 0 0
												}
											}
										}
									}
								}
							}
						}
						JOINT RightShoulder_virtual
						{
							OFFSET 0.000000 0.000000 0.000000
							CHANNELS 3 Xrotation Yrotation Zrotation
							JOINT RightShoulder
							{
								OFFSET -7.570500 7.247704 -3.868750
								CHANNELS 3 Xrotation Yrotation Zrotation
								JOINT RightShoulder_split
								{
									OFFSET -7.570500 7.247704 -3.868750
									CHANNELS 3 Xrotation Yrotation Zrotation
									JOINT RightArm
									{
										OFFSET -9.308998 -2.777710 0.208500
										CHANNELS 3 Xrotation Yrotation Zrotation
										JOINT RightForeArm
										{
											OFFSET -29.972300 0.000000 0.000000
											CHANNELS 3 Xrotation Yrotation Zrotation
											JOINT RightHand
											{
												OFFSET -26.026505 0.000000 0.000000
												CHANNELS 3 Xrotation Yrotation Zrotation
												End Site
												{
													OFFSET 0 0 0
												}
											}
										}
									}
								}
							}
						}
					}
				}
			}
		}
	}
}
MOTION
Frames: 6
Frame Time: 0.03333333
1.782808 71.561356 1.742825 0.000000 0.000000 0.000000 26.609485 -57.341248 26.281159 -60.297620 22.478445 32.499672 46.499112 -18.409219 -3.342041 -4.527913 4.058884 -9.364098 -3.701231 -8.370595 2.097774 0.000000 0.000000 0.000000 21.964005 -53.384817 23.479919 -35.688131 6.504291 -38.711463 53.503764 2.667028 -5.407096 -32.807598 3.198771 25.471515 -1.858742 3.906799 0.538618 0.000000 0.000000 0.000000 12.188252 -42.183341 16.238483 3.993953 11.137363 0.399880 6.121474 8.983707 -4.341586 1.984738 -3.214190 2.310528 0.000000 0.000000 0.000000 -9.867407 8.690776 -2.848294 -21.052385 -9.713715 2.968731 3.909444 6.014738 -7.272073 0.000000 0.000000 0.000000 -7.789721 8.006437 -0.769331 2.001462 -24.962960 3.606736 -1.739160 2.123379 -3.988127 4.187392 20.180562 -60.084921 -34.833972 -59.734731 -34.100812 0.000000 0.000000 0.000000 -9.507054 8.465955 -1.919374 -0.849572 6.699855 2.913822 8.127112 4.171538 10.731590 14.739374 -10.219918 43.562602 -39.903037 54.350848 37.693779 0.000000 0.000000 0.000000 
0.768482 71.378159 1.417439 0.000000 0.000000 0.000000 28.803922 -57.374361 27.777635 -60.399301 22.438295 32.146258 46.319546 -19.287573 -2.615163 -4.882734 3.300064 -9.980978 -3.731204 -8.531787 2.806499 0.000000 0.000000 0.000000 24.130898 -52.760261 24.780439 -36.517596 7.077486 -37.760991 55.202449 3.126274 -6.092169 -32.267613 2.404568 27.428607 -3.374012 3.776869 0.582414 0.000000 0.000000 0.000000 14.610497 -42.909133 18.354363 4.395685 9.552380 0.751417 6.816863 7.510969 -3.994809 4.114684 -5.433765 3.768024 0.000000 0.000000 0.000000 -9.093132 7.550855 -2.452104 -20.839011 -8.405098 3.769683 3.274054 6.276505 -5.411984 0.000000 0.000000 0.000000 -7.427575 6.676602 -0.794581 1.786711 -24.363420 2.999098 -0.650987 -2.674684 -2.802048 8.362095 23.380730 -58.393678 -29.286731 -54.850008 -28.534821 0.000000 0.000000 0.000000 -9.605977 7.223889 -1.645300 -0.624478 6.889095 4.207286 6.342345 2.266959 10.228729 13.308374 -13.192991 44.739365 -47.929504 59.456599 45.177432 0.000000 0.000000 0.000000 
-1.250773 71.273430 1.351757 0.000000 0.000000 0.000000 31.812207 -56.368499 30.308527 -60.602049 22.013877 31.282464 45.569656 -19.801880 -2.001132 -5.570313 3.269396 -10.903044 -4.220281 -8.680364 3.503115 0.000000 0.000000 0.000000 27.595207 -51.605084 27.523530 -37.473300 7.910834 -36.763671 56.489032 2.915783 -7.102749 -33.343740 0.465380 28.107337 -1.968305 3.743961 0.944822 0.000000 0.000000 0.000000 19.196948 -43.021890 22.135135 5.276981 6.583433 1.339573 8.055292 4.132838 -3.639230 4.038112 -4.821589 4.229611 0.000000 0.000000 0.000000 -7.798468 4.503805 -2.281498 -19.754553 -6.999271 5.511629 1.050494 6.320291 -1.950692 0.000000 0.000000 0.000000 -6.262715 3.536287 -1.248110 1.989296 -22.798219 3.017788 1.083285 -8.074897 -0.565025 10.936780 27.635835 -55.812027 -21.288865 -48.456084 -20.777207 0.000000 0.000000 0.000000 -8.802082 3.978952 -1.909659 -0.660054 6.445666 6.287447 6.466525 2.137801 10.478571 9.162457 -15.663261 43.642908 -71.218622 65.754641 68.508020 0.000000 0.000000 0.000000 
-3.801566 71.289948 1.543518 0.000000 0.000000 0.000000 35.058377 -54.356046 33.298548 -60.602657 21.427659 29.941862 44.316784 -19.729457 -1.620666 -6.278207 3.956985 -11.635995 -5.194346 -8.780300 3.918667 0.000000 0.000000 0.000000 31.325986 -49.857563 30.928681 -38.644882 8.806455 -35.964187 57.148002 2.253747 -8.360934 -35.378806 -2.210446 28.130974 1.451138 3.873735 1.445641 0.000000 0.000000 0.000000 25.139681 -42.137421 26.676453 6.771896 2.789559 1.942849 9.861353 -0.319006 -3.268813 2.030588 -2.772169 3.782286 0.000000 0.000000 0.000000 -5.969169 0.241517 -2.359519 -18.069137 -5.429822 7.180391 -2.393195 5.556966 2.354228 0.000000 0.000000 0.000000 -4.173042 -0.740950 -1.907818 2.650032 -20.952826 3.661528 2.254606 -11.970416 1.124210 9.856085 31.922412 -51.223885 -13.641908 -41.067171 -13.429987 0.000000 0.000000 0.000000 -6.903303 -0.431335 -2.426332 -0.781209 5.887829 9.177404 7.866215 3.109548 10.780419 3.675859 -16.517023 39.976653 -98.094057 66.370410 95.963024 0.000000 0.000000 0.000000 
-6.486502 71.485207 1.962421 0.000000 0.000000 0.000000 37.860254 -51.492837 36.010560 -60.361414 20.902208 28.418293 42.827827 -19.297530 -1.415162 -6.852298 5.075055 -12.127786 -6.027632 -8.816572 3.884320 0.000000 0.000000 0.000000 34.711937 -47.337128 34.239974 -39.657625 9.484076 -35.550315 56.912531 1.712840 -9.883323 -37.815226 -4.992301 28.536682 3.913079 4.118493 1.906381 0.000000 0.000000 0.000000 30.931161 -40.573277 30.955660 8.826961 -1.114039 2.425300 12.440019 -4.761844 -2.850660 0.523419 -1.132498 2.374082 0.000000 0.000000 0.000000 -3.541746 -4.223275 -2.590222 -15.959002 -3.807904 7.905920 -6.109854 3.904508 6.362855 0.000000 0.000000 0.000000 -1.154696 -5.117564 -2.523135 3.623611 -19.695382 4.634766 3.516765 -13.735708 2.639470 3.955446 34.603962 -44.203249 -7.214150 -33.038858 -7.440235 0.000000 0.000000 0.000000 -3.777977 -4.873077 -2.898163 -0.889493 5.632787 12.767247 9.542126 4.396018 10.681503 -1.899279 -15.357627 34.843623 -108.809073 64.946097 107.622287 0.000000 0.000000 0.000000 
-8.819494 71.692619 2.313789 0.000000 0.000000 0.000000 39.854646 -48.304406 38.062824 -59.721624 20.680201 26.916824 41.611059 -18.860929 -1.206853 -7.582788 6.202641 -12.400191 -6.125123 -8.807857 3.557309 0.000000 0.000000 0.000000 37.154112 -44.611104 36.967303 -39.985041 9.522453 -35.604260 55.781124 1.435901 -11.542572 -40.434156 -7.364071 29.320971 4.413048 4.400553 2.273618 0.000000 0.000000 0.000000 35.318191 -38.409391 34.048292 10.911728 -4.386438 2.591488 15.921642 -8.250934 -2.393228 -0.597777 0.339569 0.606921 0.000000 0.000000 0.000000 -0.303461 -7.867545 -2.779992 -13.933359 -2.283415 6.973316 -9.186894 1.449618 9.220271 0.000000 0.000000 0.000000 2.811549 -8.601510 -2.913303 4.737142 -19.424597 5.584373 3.578154 -14.031720 2.193606 -6.508181 33.102143 -35.345905 -2.499593 -25.037833 -3.148747 0.000000 0.000000 0.000000 0.450524 -8.324340 -3.108750 -1.003662 6.385873 16.779941 10.137964 4.182856 11.136198 -6.226111 -12.366637 29.462909 -103.389065 65.797282 103.177753 0.000000 0.000000 0.000000 
